<?xml version="1.0" encoding="UTF-8"?>
<svg xmlns="http://www.w3.org/2000/svg" width="192px" height="192px" viewBox="0 0 192 192" version="1.1">
<g id="surface1">
<path style=" stroke:none;fill-rule:nonzero;fill:rgb(16.470588%,48.235294%,60.784314%);fill-opacity:1;" d="M 0 0.1875 L 192 0.1875 L 192 192.1875 L 0 192.1875 Z M 0 0.1875 "/>
<path style=" stroke:none;fill-rule:nonzero;fill:rgb(100%,100%,100%);fill-opacity:1;" d="M 127.105469 107.671875 C 128.230469 109.46875 128.792969 111.941406 128.792969 115.085938 C 128.792969 120.484375 127.515625 125.128906 124.96875 129.027344 C 120.773438 135.472656 115.265625 140.488281 108.445312 144.089844 C 101.625 147.6875 93.496094 149.484375 84.054688 149.484375 C 69.664062 149.484375 58.5 145.175781 50.554688 136.558594 C 42.609375 127.9375 38.640625 116.289062 38.640625 101.597656 C 38.640625 91.257812 40.8125 81.628906 45.160156 72.710938 C 49.507812 63.796875 55.539062 56.714844 63.257812 51.46875 C 70.976562 46.222656 79.707031 43.597656 89.449219 43.597656 C 98.140625 43.597656 105.109375 46.183594 110.355469 51.355469 C 115.601562 56.527344 118.226562 63.53125 118.226562 72.375 C 118.226562 82.714844 114.515625 91.597656 107.097656 99.015625 C 99.679688 106.433594 87.050781 112.316406 69.214844 116.660156 C 72.8125 123.558594 78.882812 127.003906 87.425781 127.003906 C 93.570312 127.003906 98.625 125.578125 102.597656 122.730469 C 106.570312 119.882812 111.179688 115.085938 116.425781 108.34375 C 118.222656 106.097656 120.246094 104.972656 122.496094 104.972656 C 124.445312 104.972656 125.980469 105.871094 127.105469 107.671875 Z M 71.578125 75.296875 C 67.753906 81.742188 65.84375 89.535156 65.84375 98.675781 L 65.84375 99.128906 C 74.6875 97.03125 81.65625 93.882812 86.753906 89.683594 C 91.847656 85.488281 94.398438 80.617188 94.398438 75.070312 C 94.398438 72.222656 93.609375 69.9375 92.039062 68.214844 C 90.460938 66.492188 88.324219 65.628906 85.632812 65.628906 C 80.082031 65.628906 75.398438 68.851562 71.578125 75.296875 Z M 71.578125 75.296875 "/>
<path style=" stroke:none;fill-rule:nonzero;fill:rgb(100%,100%,100%);fill-opacity:1;" d="M 131.808594 145.28125 C 129.375 142.6875 128.15625 139.28125 128.15625 135.066406 C 128.15625 130.203125 129.535156 126.3125 132.292969 123.394531 C 135.046875 120.476562 138.910156 119.015625 143.882812 119.015625 C 148.640625 119.015625 152.234375 120.179688 154.664062 122.5 C 157.097656 124.828125 158.3125 128.257812 158.3125 132.796875 C 158.3125 137.769531 156.90625 141.742188 154.097656 144.710938 C 151.285156 147.6875 147.453125 149.171875 142.589844 149.171875 C 137.832031 149.171875 134.238281 147.875 131.808594 145.28125 Z M 131.808594 145.28125 "/>
</g>
</svg>
