<?xml version="1.0" encoding="utf-8"?>
<!-- Generator: Adobe Illustrator 27.5.0, SVG Export Plug-In . SVG Version: 6.00 Build 0)  -->
<svg version="1.1" id="Ebene_1" xmlns="http://www.w3.org/2000/svg" x="0px" y="0px"
     viewBox="0 0 1024 1024" style="enable-background:new 0 0 1024 1024;" xml:space="preserve">
<style type="text/css">
	.st0{fill:#FFFFFF;}
	.st1{fill:#2A7B9B;}
</style>
<g>
	<rect y="1" class="st0" width="1024" height="1024"/>
</g>
<g>
	<path class="st1" d="M677.89,574.24c6,9.59,9,22.78,9,39.56c0,28.78-6.8,53.56-20.38,74.34c-22.39,34.38-51.77,61.14-88.14,80.33
		s-79.73,28.78-130.08,28.78c-76.75,0-136.3-22.97-178.66-68.94c-42.38-45.97-63.55-108.11-63.55-186.45
		c0-55.16,11.58-106.5,34.77-154.06s55.36-85.33,96.53-113.31c41.16-27.97,87.72-41.97,139.69-41.97c46.34,0,83.52,13.8,111.5,41.38
		c27.97,27.58,41.97,64.94,41.97,112.09c0,55.16-19.8,102.53-59.36,142.09s-106.91,70.94-202.03,94.11
		c19.19,36.78,51.56,55.16,97.12,55.16c32.77,0,59.73-7.59,80.92-22.78s45.77-40.77,73.75-76.73c9.59-11.98,20.38-17.98,32.38-17.98
		C663.7,559.85,671.89,564.65,677.89,574.24z M381.75,401.58c-20.39,34.38-30.58,75.94-30.58,124.69v2.41
		c47.16-11.19,84.33-27.97,111.52-50.36c27.17-22.38,40.77-48.36,40.77-77.94c0-15.19-4.2-27.38-12.59-36.56
		c-8.41-9.19-19.8-13.8-34.17-13.8C427.11,350.02,402.12,367.21,381.75,401.58z"/>
	<path class="st1" d="M702.97,774.83c-12.97-13.83-19.46-31.99-19.46-54.47c0-25.94,7.35-46.69,22.05-62.26
		c14.7-15.56,35.3-23.35,61.82-23.35c25.36,0,44.53,6.2,57.5,18.59c12.97,12.4,19.46,30.7,19.46,54.91
		c0,26.52-7.5,47.71-22.48,63.55c-15,15.86-35.45,23.78-61.39,23.78C735.1,795.58,715.94,788.66,702.97,774.83z"/>
</g>
</svg>
